<mxfile host="app.diagrams.net" agent="Mozilla/5.0 (Windows NT 10.0; Win64; x64) AppleWebKit/537.36 (KHTML, like Gecko) Chrome/130.0.0.0 Safari/537.36" version="25.0.1">
  <diagram name="Stránka-1" id="fH-tmkO9h7C-zYVzTMa_">
    <mxGraphModel dx="1400" dy="753" grid="1" gridSize="10" guides="1" tooltips="1" connect="1" arrows="1" fold="1" page="1" pageScale="1" pageWidth="827" pageHeight="1169" math="0" shadow="0">
      <root>
        <mxCell id="0" />
        <mxCell id="1" parent="0" />
        <mxCell id="sf03h8eYxGT7Vnb9rhaR-12" value="Sponzor" style="rounded=0;whiteSpace=wrap;html=1;" vertex="1" parent="1">
          <mxGeometry x="10" y="10" width="90" height="40" as="geometry" />
        </mxCell>
        <mxCell id="sf03h8eYxGT7Vnb9rhaR-13" value="Divák" style="rounded=0;whiteSpace=wrap;html=1;" vertex="1" parent="1">
          <mxGeometry x="910" y="10" width="90" height="40" as="geometry" />
        </mxCell>
        <mxCell id="sf03h8eYxGT7Vnb9rhaR-14" value="Stadion" style="rounded=0;whiteSpace=wrap;html=1;" vertex="1" parent="1">
          <mxGeometry x="810" y="10" width="90" height="40" as="geometry" />
        </mxCell>
        <mxCell id="sf03h8eYxGT7Vnb9rhaR-15" value="Soutěž" style="rounded=0;whiteSpace=wrap;html=1;" vertex="1" parent="1">
          <mxGeometry x="710" y="10" width="90" height="40" as="geometry" />
        </mxCell>
        <mxCell id="sf03h8eYxGT7Vnb9rhaR-16" value="Zápas" style="rounded=0;whiteSpace=wrap;html=1;" vertex="1" parent="1">
          <mxGeometry x="610" y="10" width="90" height="40" as="geometry" />
        </mxCell>
        <mxCell id="sf03h8eYxGT7Vnb9rhaR-17" value="hráč" style="rounded=0;whiteSpace=wrap;html=1;" vertex="1" parent="1">
          <mxGeometry x="510" y="10" width="90" height="40" as="geometry" />
        </mxCell>
        <mxCell id="sf03h8eYxGT7Vnb9rhaR-18" value="Asistent trenéra" style="rounded=0;whiteSpace=wrap;html=1;" vertex="1" parent="1">
          <mxGeometry x="410" y="10" width="90" height="40" as="geometry" />
        </mxCell>
        <mxCell id="sf03h8eYxGT7Vnb9rhaR-19" value="Trenér" style="rounded=0;whiteSpace=wrap;html=1;" vertex="1" parent="1">
          <mxGeometry x="310" y="10" width="90" height="40" as="geometry" />
        </mxCell>
        <mxCell id="sf03h8eYxGT7Vnb9rhaR-20" value="Tým" style="rounded=0;whiteSpace=wrap;html=1;" vertex="1" parent="1">
          <mxGeometry x="210" y="10" width="90" height="40" as="geometry" />
        </mxCell>
        <mxCell id="sf03h8eYxGT7Vnb9rhaR-21" value="Manažer" style="rounded=0;whiteSpace=wrap;html=1;" vertex="1" parent="1">
          <mxGeometry x="110" y="10" width="90" height="40" as="geometry" />
        </mxCell>
        <mxCell id="sf03h8eYxGT7Vnb9rhaR-23" value="" style="rounded=0;whiteSpace=wrap;html=1;" vertex="1" parent="1">
          <mxGeometry x="50" y="50" width="10" height="40" as="geometry" />
        </mxCell>
        <mxCell id="sf03h8eYxGT7Vnb9rhaR-47" style="edgeStyle=orthogonalEdgeStyle;rounded=0;orthogonalLoop=1;jettySize=auto;html=1;exitX=1;exitY=1;exitDx=0;exitDy=0;entryX=0;entryY=0;entryDx=0;entryDy=0;" edge="1" parent="1" source="sf03h8eYxGT7Vnb9rhaR-31" target="sf03h8eYxGT7Vnb9rhaR-34">
          <mxGeometry relative="1" as="geometry">
            <Array as="points">
              <mxPoint x="130" y="90" />
              <mxPoint x="130" y="90" />
            </Array>
          </mxGeometry>
        </mxCell>
        <mxCell id="sf03h8eYxGT7Vnb9rhaR-53" value="Finance" style="edgeLabel;html=1;align=center;verticalAlign=middle;resizable=0;points=[];" vertex="1" connectable="0" parent="sf03h8eYxGT7Vnb9rhaR-47">
          <mxGeometry x="-0.1067" y="-3" relative="1" as="geometry">
            <mxPoint as="offset" />
          </mxGeometry>
        </mxCell>
        <mxCell id="sf03h8eYxGT7Vnb9rhaR-31" value="" style="rounded=0;whiteSpace=wrap;html=1;" vertex="1" parent="1">
          <mxGeometry x="50" y="50" width="10" height="40" as="geometry" />
        </mxCell>
        <mxCell id="sf03h8eYxGT7Vnb9rhaR-82" style="edgeStyle=orthogonalEdgeStyle;rounded=0;orthogonalLoop=1;jettySize=auto;html=1;exitX=1;exitY=0;exitDx=0;exitDy=0;entryX=0;entryY=0;entryDx=0;entryDy=0;" edge="1" parent="1" source="sf03h8eYxGT7Vnb9rhaR-32" target="sf03h8eYxGT7Vnb9rhaR-33">
          <mxGeometry relative="1" as="geometry">
            <Array as="points">
              <mxPoint x="910" y="250" />
              <mxPoint x="910" y="250" />
            </Array>
          </mxGeometry>
        </mxCell>
        <mxCell id="sf03h8eYxGT7Vnb9rhaR-86" value="Sleduje" style="edgeLabel;html=1;align=center;verticalAlign=middle;resizable=0;points=[];" vertex="1" connectable="0" parent="sf03h8eYxGT7Vnb9rhaR-82">
          <mxGeometry x="-0.2267" y="-1" relative="1" as="geometry">
            <mxPoint as="offset" />
          </mxGeometry>
        </mxCell>
        <mxCell id="sf03h8eYxGT7Vnb9rhaR-32" value="" style="rounded=0;whiteSpace=wrap;html=1;" vertex="1" parent="1">
          <mxGeometry x="850" y="250" width="10" height="40" as="geometry" />
        </mxCell>
        <mxCell id="sf03h8eYxGT7Vnb9rhaR-33" value="" style="rounded=0;whiteSpace=wrap;html=1;" vertex="1" parent="1">
          <mxGeometry x="950" y="250" width="10" height="40" as="geometry" />
        </mxCell>
        <mxCell id="sf03h8eYxGT7Vnb9rhaR-56" style="edgeStyle=orthogonalEdgeStyle;rounded=0;orthogonalLoop=1;jettySize=auto;html=1;exitX=1;exitY=1;exitDx=0;exitDy=0;entryX=0;entryY=0;entryDx=0;entryDy=0;" edge="1" parent="1" source="sf03h8eYxGT7Vnb9rhaR-34" target="sf03h8eYxGT7Vnb9rhaR-35">
          <mxGeometry relative="1" as="geometry">
            <Array as="points">
              <mxPoint x="180" y="130" />
              <mxPoint x="180" y="130" />
            </Array>
          </mxGeometry>
        </mxCell>
        <mxCell id="sf03h8eYxGT7Vnb9rhaR-57" value="Organizace" style="edgeLabel;html=1;align=center;verticalAlign=middle;resizable=0;points=[];" vertex="1" connectable="0" parent="sf03h8eYxGT7Vnb9rhaR-56">
          <mxGeometry x="-0.0444" y="-3" relative="1" as="geometry">
            <mxPoint as="offset" />
          </mxGeometry>
        </mxCell>
        <mxCell id="sf03h8eYxGT7Vnb9rhaR-34" value="" style="rounded=0;whiteSpace=wrap;html=1;" vertex="1" parent="1">
          <mxGeometry x="150" y="90" width="10" height="40" as="geometry" />
        </mxCell>
        <mxCell id="sf03h8eYxGT7Vnb9rhaR-65" style="edgeStyle=orthogonalEdgeStyle;rounded=0;orthogonalLoop=1;jettySize=auto;html=1;exitX=1;exitY=1;exitDx=0;exitDy=0;entryX=0;entryY=0;entryDx=0;entryDy=0;" edge="1" parent="1" source="sf03h8eYxGT7Vnb9rhaR-35" target="sf03h8eYxGT7Vnb9rhaR-36">
          <mxGeometry relative="1" as="geometry">
            <Array as="points">
              <mxPoint x="280" y="170" />
              <mxPoint x="280" y="170" />
            </Array>
          </mxGeometry>
        </mxCell>
        <mxCell id="sf03h8eYxGT7Vnb9rhaR-67" value="Příprava" style="edgeLabel;html=1;align=center;verticalAlign=middle;resizable=0;points=[];" vertex="1" connectable="0" parent="sf03h8eYxGT7Vnb9rhaR-65">
          <mxGeometry x="-0.0267" y="-2" relative="1" as="geometry">
            <mxPoint as="offset" />
          </mxGeometry>
        </mxCell>
        <mxCell id="sf03h8eYxGT7Vnb9rhaR-35" value="" style="rounded=0;whiteSpace=wrap;html=1;" vertex="1" parent="1">
          <mxGeometry x="250" y="130" width="10" height="40" as="geometry" />
        </mxCell>
        <mxCell id="sf03h8eYxGT7Vnb9rhaR-68" style="edgeStyle=orthogonalEdgeStyle;rounded=0;orthogonalLoop=1;jettySize=auto;html=1;exitX=1;exitY=0;exitDx=0;exitDy=0;entryX=0;entryY=0;entryDx=0;entryDy=0;" edge="1" parent="1" source="sf03h8eYxGT7Vnb9rhaR-36" target="sf03h8eYxGT7Vnb9rhaR-60">
          <mxGeometry relative="1" as="geometry">
            <Array as="points">
              <mxPoint x="400" y="170" />
              <mxPoint x="400" y="170" />
            </Array>
          </mxGeometry>
        </mxCell>
        <mxCell id="sf03h8eYxGT7Vnb9rhaR-69" value="Diskuze" style="edgeLabel;html=1;align=center;verticalAlign=middle;resizable=0;points=[];" vertex="1" connectable="0" parent="sf03h8eYxGT7Vnb9rhaR-68">
          <mxGeometry x="-0.1378" y="1" relative="1" as="geometry">
            <mxPoint as="offset" />
          </mxGeometry>
        </mxCell>
        <mxCell id="sf03h8eYxGT7Vnb9rhaR-87" style="edgeStyle=orthogonalEdgeStyle;rounded=0;orthogonalLoop=1;jettySize=auto;html=1;exitX=1;exitY=1;exitDx=0;exitDy=0;entryX=0;entryY=0;entryDx=0;entryDy=0;" edge="1" parent="1" source="sf03h8eYxGT7Vnb9rhaR-36" target="sf03h8eYxGT7Vnb9rhaR-39">
          <mxGeometry relative="1" as="geometry">
            <Array as="points">
              <mxPoint x="410" y="210" />
              <mxPoint x="410" y="210" />
            </Array>
          </mxGeometry>
        </mxCell>
        <mxCell id="sf03h8eYxGT7Vnb9rhaR-88" value="Stanový&lt;div&gt;strategii&lt;/div&gt;" style="edgeLabel;html=1;align=center;verticalAlign=middle;resizable=0;points=[];" vertex="1" connectable="0" parent="sf03h8eYxGT7Vnb9rhaR-87">
          <mxGeometry x="0.4989" relative="1" as="geometry">
            <mxPoint as="offset" />
          </mxGeometry>
        </mxCell>
        <mxCell id="sf03h8eYxGT7Vnb9rhaR-36" value="" style="rounded=0;whiteSpace=wrap;html=1;" vertex="1" parent="1">
          <mxGeometry x="350" y="170" width="10" height="40" as="geometry" />
        </mxCell>
        <mxCell id="sf03h8eYxGT7Vnb9rhaR-81" style="edgeStyle=orthogonalEdgeStyle;rounded=0;orthogonalLoop=1;jettySize=auto;html=1;exitX=1;exitY=0;exitDx=0;exitDy=0;entryX=0;entryY=0;entryDx=0;entryDy=0;" edge="1" parent="1" source="sf03h8eYxGT7Vnb9rhaR-37" target="sf03h8eYxGT7Vnb9rhaR-32">
          <mxGeometry relative="1" as="geometry">
            <Array as="points">
              <mxPoint x="810" y="250" />
              <mxPoint x="810" y="250" />
            </Array>
          </mxGeometry>
        </mxCell>
        <mxCell id="sf03h8eYxGT7Vnb9rhaR-85" value="Probíhá na&lt;div&gt;stadionu&lt;/div&gt;" style="edgeLabel;html=1;align=center;verticalAlign=middle;resizable=0;points=[];" vertex="1" connectable="0" parent="sf03h8eYxGT7Vnb9rhaR-81">
          <mxGeometry x="0.04" y="3" relative="1" as="geometry">
            <mxPoint as="offset" />
          </mxGeometry>
        </mxCell>
        <mxCell id="sf03h8eYxGT7Vnb9rhaR-37" value="" style="rounded=0;whiteSpace=wrap;html=1;" vertex="1" parent="1">
          <mxGeometry x="750" y="250" width="10" height="40" as="geometry" />
        </mxCell>
        <mxCell id="sf03h8eYxGT7Vnb9rhaR-79" style="edgeStyle=orthogonalEdgeStyle;rounded=0;orthogonalLoop=1;jettySize=auto;html=1;exitX=1;exitY=1;exitDx=0;exitDy=0;entryX=0;entryY=0;entryDx=0;entryDy=0;" edge="1" parent="1" source="sf03h8eYxGT7Vnb9rhaR-39" target="sf03h8eYxGT7Vnb9rhaR-40">
          <mxGeometry relative="1" as="geometry">
            <Array as="points">
              <mxPoint x="580" y="250" />
              <mxPoint x="580" y="250" />
            </Array>
          </mxGeometry>
        </mxCell>
        <mxCell id="sf03h8eYxGT7Vnb9rhaR-83" value="Hraje" style="edgeLabel;html=1;align=center;verticalAlign=middle;resizable=0;points=[];" vertex="1" connectable="0" parent="sf03h8eYxGT7Vnb9rhaR-79">
          <mxGeometry x="-0.1822" y="-3" relative="1" as="geometry">
            <mxPoint as="offset" />
          </mxGeometry>
        </mxCell>
        <mxCell id="sf03h8eYxGT7Vnb9rhaR-39" value="" style="rounded=0;whiteSpace=wrap;html=1;" vertex="1" parent="1">
          <mxGeometry x="550" y="210" width="10" height="40" as="geometry" />
        </mxCell>
        <mxCell id="sf03h8eYxGT7Vnb9rhaR-80" style="edgeStyle=orthogonalEdgeStyle;rounded=0;orthogonalLoop=1;jettySize=auto;html=1;exitX=1;exitY=0;exitDx=0;exitDy=0;entryX=0;entryY=0;entryDx=0;entryDy=0;" edge="1" parent="1" source="sf03h8eYxGT7Vnb9rhaR-40" target="sf03h8eYxGT7Vnb9rhaR-37">
          <mxGeometry relative="1" as="geometry">
            <Array as="points">
              <mxPoint x="710" y="250" />
              <mxPoint x="710" y="250" />
            </Array>
          </mxGeometry>
        </mxCell>
        <mxCell id="sf03h8eYxGT7Vnb9rhaR-84" value="Součást&lt;div&gt;soutěže&lt;/div&gt;" style="edgeLabel;html=1;align=center;verticalAlign=middle;resizable=0;points=[];" vertex="1" connectable="0" parent="sf03h8eYxGT7Vnb9rhaR-80">
          <mxGeometry x="-0.1378" y="-1" relative="1" as="geometry">
            <mxPoint as="offset" />
          </mxGeometry>
        </mxCell>
        <mxCell id="sf03h8eYxGT7Vnb9rhaR-40" value="" style="rounded=0;whiteSpace=wrap;html=1;" vertex="1" parent="1">
          <mxGeometry x="650" y="250" width="10" height="40" as="geometry" />
        </mxCell>
        <mxCell id="sf03h8eYxGT7Vnb9rhaR-48" value="" style="endArrow=none;dashed=1;html=1;rounded=0;entryX=0.5;entryY=1;entryDx=0;entryDy=0;" edge="1" parent="1" target="sf03h8eYxGT7Vnb9rhaR-35">
          <mxGeometry width="50" height="50" relative="1" as="geometry">
            <mxPoint x="255" y="350" as="sourcePoint" />
            <mxPoint x="-10" y="250" as="targetPoint" />
          </mxGeometry>
        </mxCell>
        <mxCell id="sf03h8eYxGT7Vnb9rhaR-49" value="" style="endArrow=none;dashed=1;html=1;rounded=0;entryX=0.5;entryY=1;entryDx=0;entryDy=0;exitX=0.5;exitY=0;exitDx=0;exitDy=0;" edge="1" parent="1" source="sf03h8eYxGT7Vnb9rhaR-35" target="sf03h8eYxGT7Vnb9rhaR-20">
          <mxGeometry width="50" height="50" relative="1" as="geometry">
            <mxPoint x="-60" y="300" as="sourcePoint" />
            <mxPoint x="-10" y="250" as="targetPoint" />
          </mxGeometry>
        </mxCell>
        <mxCell id="sf03h8eYxGT7Vnb9rhaR-50" value="" style="endArrow=none;dashed=1;html=1;rounded=0;" edge="1" parent="1">
          <mxGeometry width="50" height="50" relative="1" as="geometry">
            <mxPoint x="155" y="350" as="sourcePoint" />
            <mxPoint x="155" y="130" as="targetPoint" />
          </mxGeometry>
        </mxCell>
        <mxCell id="sf03h8eYxGT7Vnb9rhaR-51" value="" style="endArrow=none;dashed=1;html=1;rounded=0;entryX=0.5;entryY=1;entryDx=0;entryDy=0;exitX=0.5;exitY=0;exitDx=0;exitDy=0;" edge="1" parent="1" source="sf03h8eYxGT7Vnb9rhaR-34" target="sf03h8eYxGT7Vnb9rhaR-21">
          <mxGeometry width="50" height="50" relative="1" as="geometry">
            <mxPoint x="-60" y="300" as="sourcePoint" />
            <mxPoint x="-10" y="250" as="targetPoint" />
          </mxGeometry>
        </mxCell>
        <mxCell id="sf03h8eYxGT7Vnb9rhaR-52" value="" style="endArrow=none;dashed=1;html=1;rounded=0;entryX=0.75;entryY=1;entryDx=0;entryDy=0;" edge="1" parent="1" target="sf03h8eYxGT7Vnb9rhaR-31">
          <mxGeometry width="50" height="50" relative="1" as="geometry">
            <mxPoint x="58" y="350" as="sourcePoint" />
            <mxPoint x="-10" y="250" as="targetPoint" />
          </mxGeometry>
        </mxCell>
        <mxCell id="sf03h8eYxGT7Vnb9rhaR-60" value="" style="rounded=0;whiteSpace=wrap;html=1;" vertex="1" parent="1">
          <mxGeometry x="450" y="170" width="10" height="40" as="geometry" />
        </mxCell>
        <mxCell id="sf03h8eYxGT7Vnb9rhaR-61" value="" style="endArrow=none;dashed=1;html=1;rounded=0;entryX=0.5;entryY=1;entryDx=0;entryDy=0;" edge="1" parent="1" target="sf03h8eYxGT7Vnb9rhaR-60">
          <mxGeometry width="50" height="50" relative="1" as="geometry">
            <mxPoint x="455" y="350" as="sourcePoint" />
            <mxPoint x="590" y="250" as="targetPoint" />
          </mxGeometry>
        </mxCell>
        <mxCell id="sf03h8eYxGT7Vnb9rhaR-62" value="" style="endArrow=none;dashed=1;html=1;rounded=0;entryX=0.5;entryY=1;entryDx=0;entryDy=0;" edge="1" parent="1" target="sf03h8eYxGT7Vnb9rhaR-36">
          <mxGeometry width="50" height="50" relative="1" as="geometry">
            <mxPoint x="355" y="350" as="sourcePoint" />
            <mxPoint x="590" y="250" as="targetPoint" />
          </mxGeometry>
        </mxCell>
        <mxCell id="sf03h8eYxGT7Vnb9rhaR-63" value="" style="endArrow=none;dashed=1;html=1;rounded=0;entryX=0.5;entryY=1;entryDx=0;entryDy=0;exitX=0.5;exitY=0;exitDx=0;exitDy=0;" edge="1" parent="1" source="sf03h8eYxGT7Vnb9rhaR-60" target="sf03h8eYxGT7Vnb9rhaR-18">
          <mxGeometry width="50" height="50" relative="1" as="geometry">
            <mxPoint x="455" y="160" as="sourcePoint" />
            <mxPoint x="590" y="250" as="targetPoint" />
          </mxGeometry>
        </mxCell>
        <mxCell id="sf03h8eYxGT7Vnb9rhaR-64" value="" style="endArrow=none;dashed=1;html=1;rounded=0;entryX=0.5;entryY=0;entryDx=0;entryDy=0;exitX=0.5;exitY=1;exitDx=0;exitDy=0;" edge="1" parent="1" source="sf03h8eYxGT7Vnb9rhaR-19" target="sf03h8eYxGT7Vnb9rhaR-36">
          <mxGeometry width="50" height="50" relative="1" as="geometry">
            <mxPoint x="540" y="300" as="sourcePoint" />
            <mxPoint x="590" y="250" as="targetPoint" />
          </mxGeometry>
        </mxCell>
        <mxCell id="sf03h8eYxGT7Vnb9rhaR-71" value="" style="endArrow=none;dashed=1;html=1;rounded=0;entryX=0.5;entryY=1;entryDx=0;entryDy=0;" edge="1" parent="1" target="sf03h8eYxGT7Vnb9rhaR-39">
          <mxGeometry width="50" height="50" relative="1" as="geometry">
            <mxPoint x="555" y="350" as="sourcePoint" />
            <mxPoint x="590" y="250" as="targetPoint" />
          </mxGeometry>
        </mxCell>
        <mxCell id="sf03h8eYxGT7Vnb9rhaR-72" value="" style="endArrow=none;dashed=1;html=1;rounded=0;entryX=0.5;entryY=1;entryDx=0;entryDy=0;exitX=0.5;exitY=0;exitDx=0;exitDy=0;" edge="1" parent="1" source="sf03h8eYxGT7Vnb9rhaR-33" target="sf03h8eYxGT7Vnb9rhaR-13">
          <mxGeometry width="50" height="50" relative="1" as="geometry">
            <mxPoint x="540" y="300" as="sourcePoint" />
            <mxPoint x="590" y="250" as="targetPoint" />
          </mxGeometry>
        </mxCell>
        <mxCell id="sf03h8eYxGT7Vnb9rhaR-73" value="" style="endArrow=none;dashed=1;html=1;rounded=0;entryX=0.5;entryY=1;entryDx=0;entryDy=0;exitX=0.5;exitY=0;exitDx=0;exitDy=0;" edge="1" parent="1" source="sf03h8eYxGT7Vnb9rhaR-32" target="sf03h8eYxGT7Vnb9rhaR-14">
          <mxGeometry width="50" height="50" relative="1" as="geometry">
            <mxPoint x="540" y="300" as="sourcePoint" />
            <mxPoint x="590" y="250" as="targetPoint" />
          </mxGeometry>
        </mxCell>
        <mxCell id="sf03h8eYxGT7Vnb9rhaR-74" value="" style="endArrow=none;dashed=1;html=1;rounded=0;entryX=0.5;entryY=1;entryDx=0;entryDy=0;exitX=0.75;exitY=0;exitDx=0;exitDy=0;" edge="1" parent="1" source="sf03h8eYxGT7Vnb9rhaR-37" target="sf03h8eYxGT7Vnb9rhaR-15">
          <mxGeometry width="50" height="50" relative="1" as="geometry">
            <mxPoint x="540" y="300" as="sourcePoint" />
            <mxPoint x="590" y="250" as="targetPoint" />
          </mxGeometry>
        </mxCell>
        <mxCell id="sf03h8eYxGT7Vnb9rhaR-75" value="" style="endArrow=none;dashed=1;html=1;rounded=0;entryX=0.5;entryY=1;entryDx=0;entryDy=0;exitX=0.5;exitY=0;exitDx=0;exitDy=0;" edge="1" parent="1" source="sf03h8eYxGT7Vnb9rhaR-40" target="sf03h8eYxGT7Vnb9rhaR-16">
          <mxGeometry width="50" height="50" relative="1" as="geometry">
            <mxPoint x="540" y="300" as="sourcePoint" />
            <mxPoint x="590" y="250" as="targetPoint" />
          </mxGeometry>
        </mxCell>
        <mxCell id="sf03h8eYxGT7Vnb9rhaR-76" value="" style="endArrow=none;dashed=1;html=1;rounded=0;entryX=0.5;entryY=1;entryDx=0;entryDy=0;exitX=0.5;exitY=0;exitDx=0;exitDy=0;" edge="1" parent="1" source="sf03h8eYxGT7Vnb9rhaR-39" target="sf03h8eYxGT7Vnb9rhaR-17">
          <mxGeometry width="50" height="50" relative="1" as="geometry">
            <mxPoint x="540" y="300" as="sourcePoint" />
            <mxPoint x="590" y="250" as="targetPoint" />
          </mxGeometry>
        </mxCell>
      </root>
    </mxGraphModel>
  </diagram>
</mxfile>
